<svg width="24" height="24" viewBox="0 0 24 24" fill="none" xmlns="http://www.w3.org/2000/svg">
<path d="M12.0005 3C7.02917 3 3 7.02917 3 11.9995C2.99988 13.1815 3.2326 14.352 3.68487 15.444C4.13714 16.5361 4.80011 17.5283 5.6359 18.3641C6.4717 19.1999 7.46395 19.8629 8.55599 20.3151C9.64804 20.7674 10.8185 21.0001 12.0005 21C16.9699 21 21 16.9708 21 11.9995C21 7.02917 16.9699 3 12.0005 3V3ZM12.8404 6.24921C13.7179 6.24921 13.9757 6.75824 13.9757 7.3404C13.9757 8.06692 13.3945 8.73908 12.4017 8.73908C11.5711 8.73908 11.1755 8.32191 11.1999 7.63101C11.1999 7.04885 11.6864 6.24921 12.8404 6.24921V6.24921ZM10.5924 17.3899C9.99245 17.3899 9.55466 17.0252 9.9737 15.4269L10.6609 12.5911C10.7799 12.1373 10.7996 11.9555 10.6609 11.9555C10.4818 11.9555 9.70278 12.2686 9.24342 12.5779L8.94438 12.0877C10.4021 10.8699 12.0783 10.1556 12.7954 10.1556C13.3954 10.1556 13.4948 10.8643 13.1957 11.9555L12.4083 14.9366C12.2686 15.4634 12.3286 15.6453 12.4683 15.6453C12.6482 15.6453 13.237 15.4278 13.8163 14.9713L14.1557 15.4269C12.7373 16.8443 11.1914 17.3899 10.5924 17.3899Z" fill="black"/>
</svg>
