<svg width="24" height="24" viewBox="0 0 24 24" fill="none" xmlns="http://www.w3.org/2000/svg">
<path fill-rule="evenodd" clip-rule="evenodd" d="M19 4H5C4.44772 4 4 4.44772 4 5V19C4 19.5523 4.44772 20 5 20H19C19.5523 20 20 19.5523 20 19V5C20 4.44772 19.5523 4 19 4ZM5 3C3.89543 3 3 3.89543 3 5V19C3 20.1046 3.89543 21 5 21H19C20.1046 21 21 20.1046 21 19V5C21 3.89543 20.1046 3 19 3H5Z" fill="black"/>
<path d="M16.1538 6H7.84615C7.35669 6.00053 6.88742 6.19521 6.54132 6.54132C6.19521 6.88742 6.00053 7.35669 6 7.84615V16.1538C6.00053 16.6433 6.19521 17.1126 6.54132 17.4587C6.88742 17.8048 7.35669 17.9995 7.84615 18H16.1538C16.6433 17.9995 17.1126 17.8048 17.4587 17.4587C17.8048 17.1126 17.9995 16.6433 18 16.1538V7.84615C17.9995 7.35669 17.8048 6.88742 17.4587 6.54132C17.1126 6.19521 16.6433 6.00053 16.1538 6V6ZM15.1226 9.98913L11.2457 14.6045C11.2031 14.6552 11.1502 14.6961 11.0905 14.7245C11.0308 14.7529 10.9657 14.7682 10.8995 14.7692H10.8917C10.827 14.7692 10.7631 14.7556 10.704 14.7292C10.6449 14.7029 10.592 14.6644 10.5488 14.6163L8.88721 12.7702C8.84501 12.7254 8.81219 12.6727 8.79067 12.6151C8.76914 12.5575 8.75935 12.4961 8.76188 12.4346C8.7644 12.3732 8.77918 12.3129 8.80536 12.2572C8.83153 12.2015 8.86857 12.1516 8.91429 12.1105C8.96001 12.0694 9.0135 12.0378 9.07161 12.0176C9.12971 11.9974 9.19127 11.989 9.25265 11.993C9.31404 11.9969 9.37401 12.0131 9.42906 12.0406C9.4841 12.068 9.5331 12.1062 9.57317 12.1529L10.8796 13.6044L14.4159 9.39548C14.4952 9.30377 14.6074 9.24696 14.7283 9.23733C14.8492 9.2277 14.969 9.26602 15.0618 9.34401C15.1546 9.422 15.2131 9.53339 15.2244 9.65411C15.2358 9.77483 15.1992 9.89517 15.1226 9.98913V9.98913Z" fill="black"/>
</svg>
