<svg width="24" height="24" viewBox="0 0 24 24" fill="none" xmlns="http://www.w3.org/2000/svg">
<path d="M19.861 9.1546H19.3728V6.83704C19.3724 6.82232 19.371 6.80764 19.3685 6.79311C19.3692 6.70001 19.3354 6.60985 19.2734 6.53946L15.3552 2.13462L15.3523 2.13178C15.3288 2.10684 15.3022 2.08494 15.2731 2.0666L15.2472 2.05101C15.2223 2.03739 15.196 2.02647 15.1687 2.01842L15.1471 2.01134C15.1172 2.004 15.0865 2.00019 15.0557 2H5.42424C4.98432 2 4.6272 2.35213 4.6272 2.78433V9.15389H4.13904C3.50976 9.15389 3 9.65552 3 10.2748V16.1044C3 16.723 3.51048 17.2253 4.13904 17.2253H4.6272V21.2157C4.6272 21.6479 4.98432 22 5.42424 22H18.5758C19.015 22 19.3728 21.6479 19.3728 21.2157V17.2253H19.861C20.4895 17.2253 21 16.7237 21 16.1044V10.2748C21 9.65623 20.4902 9.1546 19.861 9.1546ZM5.42424 2.78433H14.6568V6.79736C14.6568 7.01417 14.8354 7.18917 15.0557 7.18917H18.5765V9.15389H5.42424V2.78433ZM11.3873 13.5311C10.4196 13.191 9.78096 12.6639 9.78096 11.8314C9.78096 10.8543 10.619 10.1153 11.9834 10.1153C12.6487 10.1153 13.1232 10.2429 13.4688 10.4037L13.175 11.4403C12.7985 11.2598 12.3849 11.167 11.9662 11.1689C11.3959 11.1689 11.1194 11.4318 11.1194 11.7208C11.1194 12.0864 11.4384 12.2473 12.1987 12.5278C13.2269 12.9019 13.7014 13.4284 13.7014 14.2361C13.7014 15.1968 12.959 16.0123 11.3614 16.0123C10.6961 16.0123 10.0402 15.8338 9.71184 15.6552L9.97968 14.5932C10.4318 14.8203 10.9308 14.9425 11.4384 14.9503C12.0432 14.9503 12.3629 14.703 12.3629 14.3296C12.3629 13.9725 12.0871 13.7692 11.3873 13.5311ZM4.52856 13.14C4.52856 11.1937 5.9448 10.1146 7.70592 10.1146C8.38848 10.1146 8.90616 10.25 9.13944 10.3612L8.86296 11.3893C8.51322 11.2447 8.13706 11.1724 7.75776 11.1767C6.72168 11.1767 5.91024 11.7967 5.91024 13.0713C5.91024 14.2099 6.60072 14.9326 7.7664 14.9326C8.17248 14.9326 8.60448 14.8567 8.8716 14.7455L9.0624 15.7651C8.82912 15.8749 8.27616 16.0116 7.57704 16.0116C5.56464 16.0123 4.52856 14.7717 4.52856 13.14ZM18.5758 21.0045H5.42424V17.226H18.5758V21.0045ZM17.5116 15.9273H15.9744L14.1096 10.1997H15.5518L16.2595 12.6221C16.4575 13.31 16.639 13.9562 16.7772 14.6697H16.8031C16.9503 13.9888 17.1259 13.3142 17.3294 12.6476L18.0725 10.2004H19.4707L17.5116 15.9273Z" fill="black"/>
</svg>
