<svg width="24" height="24" viewBox="0 0 24 24" fill="none" xmlns="http://www.w3.org/2000/svg">
<path d="M19.084 17.5195L15.832 14.2676C16.2656 13.5527 16.4824 12.7852 16.4824 11.9648C16.4824 10.9219 16.1631 9.99609 15.5244 9.1875C14.8857 8.37891 14.0742 7.8457 13.0898 7.58789V3C14.5664 3.1875 15.9053 3.69727 17.1064 4.5293C18.3076 5.36133 19.2568 6.43066 19.9541 7.7373C20.6514 9.04395 21 10.4531 21 11.9648C21 14.0273 20.3613 15.8789 19.084 17.5195ZM7.60547 10.8223H3C3.25781 8.7832 4.11621 7.03418 5.5752 5.5752C7.03418 4.11621 8.7832 3.25781 10.8223 3V7.58789C10.0371 7.79883 9.35449 8.19434 8.77441 8.77441C8.19434 9.35449 7.80469 10.0371 7.60547 10.8223ZM7.58789 13.0898C7.8457 14.0742 8.37891 14.8857 9.1875 15.5244C9.99609 16.1631 10.9219 16.4824 11.9648 16.4824C12.7852 16.4824 13.5527 16.2656 14.2676 15.832L17.5195 19.084C15.8789 20.3613 14.0273 21 11.9648 21C10.4531 21 9.04395 20.6514 7.7373 19.9541C6.43066 19.2568 5.36133 18.3076 4.5293 17.1064C3.69727 15.9053 3.1875 14.5664 3 13.0898H7.58789Z" fill="black"/>
</svg>
