<svg width="24" height="24" viewBox="0 0 24 24" fill="none" xmlns="http://www.w3.org/2000/svg">
<path fill-rule="evenodd" clip-rule="evenodd" d="M3 12C3 7.02991 7.02991 3 12 3C16.9701 3 21 7.02991 21 12C21 16.9701 16.9701 21 12 21C7.02991 21 3 16.9701 3 12ZM10 7C10 6.44772 10.4477 6 11 6H13C13.5523 6 14 6.44772 14 7V10H17C17.5523 10 18 10.4477 18 11V13C18 13.5523 17.5523 14 17 14H14V17C14 17.5523 13.5523 18 13 18H11C10.4477 18 10 17.5523 10 17V14H7C6.44771 14 6 13.5523 6 13V11C6 10.4477 6.44771 10 7 10L10 10V7Z" fill="black"/>
</svg>
