<svg width="25" height="24" viewBox="0 0 25 24" fill="none" xmlns="http://www.w3.org/2000/svg">
<path fill-rule="evenodd" clip-rule="evenodd" d="M10 17C13.866 17 17 13.866 17 10C17 6.13401 13.866 3 10 3C6.13401 3 3 6.13401 3 10C3 13.866 6.13401 17 10 17ZM10 14.375C12.4162 14.375 14.375 12.4162 14.375 10C14.375 7.58375 12.4162 5.625 10 5.625C7.58375 5.625 5.625 7.58375 5.625 10C5.625 12.4162 7.58375 14.375 10 14.375Z" fill="black"/>
<path d="M14.2756 15.8213C13.9526 15.4235 13.9824 14.846 14.3447 14.4837L14.4837 14.3447C14.846 13.9824 15.4235 13.9526 15.8213 14.2756L21.7896 19.1228C22.2499 19.4967 22.2856 20.1868 21.8662 20.6062L20.6062 21.8662C20.1868 22.2856 19.4967 22.2499 19.1228 21.7896L14.2756 15.8213Z" fill="black"/>
</svg>
