<svg width="24" height="24" viewBox="0 0 24 24" fill="none" xmlns="http://www.w3.org/2000/svg">
<path d="M12 3C7.02991 3 3 7.02991 3 12C3 16.9701 7.02991 21 12 21C16.9701 21 21 16.9701 21 12C21 7.02991 16.9701 3 12 3ZM15.7065 10.1056L12.1306 15.0475C12.1158 15.0681 12.0963 15.0848 12.0738 15.0963C12.0513 15.1079 12.0263 15.1139 12.001 15.1139C11.9757 15.1139 11.9507 15.1079 11.9282 15.0963C11.9057 15.0848 11.8862 15.0681 11.8714 15.0475L8.29554 10.1056C8.2192 9.99911 8.29554 9.85045 8.42612 9.85045H9.3683C9.57321 9.85045 9.76808 9.94888 9.88862 10.1156L12 13.0366L14.1134 10.1156C14.2339 9.94888 14.4268 9.85045 14.6337 9.85045H15.5759C15.7065 9.85045 15.7828 9.99911 15.7065 10.1056Z" fill="black"/>
</svg>
