<svg width="24" height="24" viewBox="0 0 24 24" fill="none" xmlns="http://www.w3.org/2000/svg">
<path d="M18.8131 7.51406C18.9324 7.6346 19 7.79732 19 7.96808V20.3571C19 20.7127 18.7156 21 18.3636 21H5.63636C5.28437 21 5 20.7127 5 20.3571V3.64286C5 3.28728 5.28437 3 5.63636 3H14.0821C14.2511 3 14.4142 3.0683 14.5335 3.18884L18.8131 7.51406V7.51406ZM17.5324 8.26339L13.7898 4.48259V8.26339H17.5324ZM8.18182 11.3973C8.13962 11.3973 8.09916 11.4143 8.06932 11.4444C8.03949 11.4745 8.02273 11.5154 8.02273 11.558V12.5223C8.02273 12.5649 8.03949 12.6058 8.06932 12.636C8.09916 12.6661 8.13962 12.683 8.18182 12.683H15.8182C15.8604 12.683 15.9008 12.6661 15.9307 12.636C15.9605 12.6058 15.9773 12.5649 15.9773 12.5223V11.558C15.9773 11.5154 15.9605 11.4745 15.9307 11.4444C15.9008 11.4143 15.8604 11.3973 15.8182 11.3973H8.18182ZM8.18182 14.1295C8.13962 14.1295 8.09916 14.1464 8.06932 14.1765C8.03949 14.2067 8.02273 14.2476 8.02273 14.2902V15.2545C8.02273 15.2971 8.03949 15.338 8.06932 15.3681C8.09916 15.3982 8.13962 15.4152 8.18182 15.4152H11.8409C11.8831 15.4152 11.9236 15.3982 11.9534 15.3681C11.9832 15.338 12 15.2971 12 15.2545V14.2902C12 14.2476 11.9832 14.2067 11.9534 14.1765C11.9236 14.1464 11.8831 14.1295 11.8409 14.1295H8.18182Z" fill="black"/>
</svg>
