<svg width="24" height="24" viewBox="0 0 24 24" fill="none" xmlns="http://www.w3.org/2000/svg">
<path fill-rule="evenodd" clip-rule="evenodd" d="M12 21C16.9706 21 21 16.9706 21 12C21 7.02944 16.9706 3 12 3C7.02944 3 3 7.02944 3 12C3 16.9706 7.02944 21 12 21ZM8.89293 11.4544C8.89293 12.2464 8.22693 12.9124 7.43493 12.9124C6.64293 12.9124 5.97693 12.2464 5.97693 11.4544C5.97693 10.6624 6.64293 9.99642 7.43493 9.99642C8.22693 9.99642 8.89293 10.6624 8.89293 11.4544ZM13.516 11.4544C13.516 12.2464 12.85 12.9124 12.058 12.9124C11.266 12.9124 10.6 12.2464 10.6 11.4544C10.6 10.6624 11.266 9.99642 12.058 9.99642C12.85 9.99642 13.516 10.6624 13.516 11.4544ZM18.139 11.4544C18.139 12.2464 17.473 12.9124 16.681 12.9124C15.889 12.9124 15.223 12.2464 15.223 11.4544C15.223 10.6624 15.889 9.99642 16.681 9.99642C17.473 9.99642 18.139 10.6624 18.139 11.4544Z" fill="black"/>
</svg>
