<svg width="24" height="24" viewBox="0 0 24 24" fill="none" xmlns="http://www.w3.org/2000/svg">
<path d="M3 12C3 16.9701 7.02991 21 12 21C16.9701 21 21 16.9701 21 12C21 7.02991 16.9701 3 12 3C7.02991 3 3 7.02991 3 12ZM10.1056 8.29353L15.0475 11.8694C15.0681 11.8842 15.0848 11.9037 15.0963 11.9262C15.1079 11.9487 15.1139 11.9737 15.1139 11.999C15.1139 12.0243 15.1079 12.0493 15.0963 12.0718C15.0848 12.0943 15.0681 12.1138 15.0475 12.1286L10.1056 15.7045C9.99911 15.7808 9.85045 15.7045 9.85045 15.5739L9.85045 14.6317C9.85045 14.4268 9.94888 14.2319 10.1156 14.1114L13.0366 12L10.1156 9.88661C9.94888 9.76607 9.85045 9.57321 9.85045 9.36629L9.85045 8.42411C9.85045 8.29353 9.99911 8.21719 10.1056 8.29353Z" fill="black"/>
</svg>
